<?xml version="1.0" standalone="no"?>
<!DOCTYPE svg PUBLIC "-//W3C//DTD SVG 20010904//EN"
 "http://www.w3.org/TR/2001/REC-SVG-20010904/DTD/svg10.dtd">
<svg version="1.0" xmlns="http://www.w3.org/2000/svg"
 width="400.000000pt" height="400.000000pt" viewBox="0 0 400.000000 400.000000"
 preserveAspectRatio="xMidYMid meet">
<metadata>
Created by potrace 1.14, written by Peter Selinger 2001-2017
</metadata>
<g transform="translate(0.000000,400.000000) scale(0.100000,-0.100000)"
fill="#000000" stroke="none">
<path d="M2229 3829 c-1 -8 0 -24 0 -36 2 -18 -2 -21 -31 -18 -18 2 -44 7 -58
10 -14 3 -83 5 -155 5 -160 -2 -165 -2 -165 -13 0 -4 -3 -6 -7 -4 -5 3 -28 1
-53 -3 -187 -33 -368 -108 -522 -216 -68 -47 -79 -52 -92 -39 -8 8 -18 15 -23
15 -5 0 -15 9 -23 20 -8 11 -20 20 -26 20 -6 0 -17 7 -24 15 -19 23 -28 18
-51 -27 -12 -24 -27 -46 -33 -50 -6 -4 -8 -8 -3 -8 4 0 1 -13 -8 -30 -9 -16
-13 -30 -10 -30 4 0 -1 -7 -9 -16 -9 -8 -16 -24 -16 -35 0 -10 -4 -19 -10 -19
-5 0 -10 -7 -10 -15 0 -8 -5 -15 -11 -15 -5 0 -8 -4 -5 -8 2 -4 -11 -38 -29
-75 -19 -37 -33 -67 -31 -67 2 0 -18 -43 -44 -94 -25 -52 -42 -93 -36 -90 6 3
4 0 -4 -8 -8 -7 -16 -20 -18 -28 -2 -8 -8 -18 -14 -21 -5 -3 -9 -8 -8 -10 1
-2 -4 -17 -11 -34 -7 -16 -12 -33 -11 -37 1 -5 -2 -8 -8 -8 -5 0 -10 -8 -10
-17 0 -10 -7 -27 -15 -37 -17 -23 -20 -56 -5 -56 6 0 10 -5 10 -10 0 -6 9 -21
20 -33 16 -17 19 -30 15 -62 -20 -134 -4 -322 38 -455 31 -96 159 -393 177
-410 3 -3 18 -30 34 -60 38 -72 106 -184 175 -290 31 -47 61 -92 66 -101 37
-60 198 -284 207 -287 4 -2 8 -8 8 -14 0 -5 6 -15 13 -22 6 -7 21 -25 32 -41
11 -15 55 -72 98 -126 42 -55 77 -101 77 -104 0 -3 10 -17 23 -29 12 -13 32
-37 44 -52 12 -16 30 -38 40 -49 10 -11 38 -45 63 -75 25 -30 49 -60 55 -66
28 -32 102 -120 113 -136 23 -32 70 -23 114 22 21 23 38 44 38 47 0 3 13 19
30 34 16 16 28 29 25 29 -3 0 3 8 13 19 24 25 88 102 105 125 9 12 19 16 28
11 11 -6 11 -5 2 5 -9 10 -7 17 10 35 33 33 67 74 67 81 0 2 23 33 50 67 28
34 54 67 58 72 23 32 99 132 107 141 6 6 28 37 50 68 113 162 111 160 133 138
19 -19 20 -19 33 0 8 11 13 24 11 29 -1 5 2 9 7 9 5 0 13 10 17 23 3 12 24 59
45 104 22 45 39 87 39 92 0 6 4 11 9 11 5 0 12 13 16 30 4 16 11 30 16 30 5 0
8 3 7 8 -3 10 82 176 94 183 5 3 9 9 9 13 -1 3 25 61 57 129 33 67 69 145 80
172 33 78 72 179 75 190 1 6 6 13 10 16 4 3 9 16 10 27 1 12 5 22 9 22 5 0 13
12 19 28 6 15 21 50 35 79 13 28 24 58 24 66 0 8 -20 31 -44 51 -39 34 -44 42
-49 94 -4 39 -2 59 6 64 7 4 8 8 3 8 -5 0 -3 7 4 15 7 8 9 15 5 15 -5 0 -2 8
6 18 17 20 25 72 11 72 -23 0 -101 89 -122 140 -33 81 -74 165 -82 168 -5 2
-8 8 -8 14 0 25 -114 172 -201 260 -54 55 -94 104 -93 113 2 12 -1 13 -10 6
-10 -8 -21 -5 -41 11 -15 12 -62 42 -104 68 -43 25 -76 51 -73 58 2 7 -1 12
-7 12 -6 0 -11 -4 -11 -9 0 -5 -36 7 -81 26 -44 19 -86 36 -92 37 -7 2 -32 8
-57 15 -25 8 -49 14 -55 15 -36 7 -55 20 -56 37 -2 32 -4 37 -11 45 -5 4 -8 1
-9 -7z"/>
<path d="M3073 3378 c-16 -23 -20 -35 -12 -43 13 -13 49 28 49 56 0 27 -12 23
-37 -13z"/>
<path d="M1815 100 c3 -5 8 -10 11 -10 2 0 4 5 4 10 0 6 -5 10 -11 10 -5 0 -7
-4 -4 -10z"/>
<path d="M2230 96 c0 -2 8 -10 18 -17 15 -13 16 -12 3 4 -13 16 -21 21 -21 13z"/>
<path d="M2509 83 c-13 -16 -12 -17 4 -4 16 13 21 21 13 21 -2 0 -10 -8 -17
-17z"/>
<path d="M1170 79 c0 -5 5 -7 10 -4 6 3 10 8 10 11 0 2 -4 4 -10 4 -5 0 -10
-5 -10 -11z"/>
<path d="M1273 73 c0 -9 4 -10 14 -2 7 6 13 12 13 14 0 1 -6 2 -13 2 -8 0 -14
-6 -14 -14z"/>
<path d="M1486 82 c-3 -5 1 -9 9 -9 8 0 12 4 9 9 -3 4 -7 8 -9 8 -2 0 -6 -4
-9 -8z"/>
<path d="M1879 72 c-13 -15 -12 -16 3 -4 13 10 17 10 21 0 4 -9 6 -9 6 -1 2
20 -16 24 -30 5z"/>
<path d="M2015 80 c-3 -5 -1 -10 4 -10 6 0 11 5 11 10 0 6 -2 10 -4 10 -3 0
-8 -4 -11 -10z"/>
<path d="M2190 80 c0 -5 5 -10 11 -10 5 0 7 5 4 10 -3 6 -8 10 -11 10 -2 0 -4
-4 -4 -10z"/>
<path d="M1055 71 c-3 -5 -2 -12 3 -15 5 -3 9 1 9 9 0 17 -3 19 -12 6z"/>
<path d="M1557 69 c7 -7 15 -10 18 -7 3 3 -2 9 -12 12 -14 6 -15 5 -6 -5z"/>
<path d="M1616 63 c-6 -14 -5 -15 5 -6 7 7 10 15 7 18 -3 3 -9 -2 -12 -12z"/>
<path d="M1215 60 c-3 -5 -1 -10 4 -10 6 0 11 5 11 10 0 6 -2 10 -4 10 -3 0
-8 -4 -11 -10z"/>
<path d="M1354 59 c-3 -6 -2 -15 4 -21 6 -6 12 -6 17 3 6 8 4 10 -5 4 -10 -6
-12 -4 -7 8 7 19 2 23 -9 6z"/>
<path d="M1400 55 c-7 -8 -9 -15 -6 -15 4 0 1 -6 -5 -13 -16 -17 -52 -20 -42
-4 5 9 2 8 -9 0 -15 -13 -28 -8 -28 9 0 5 6 6 13 2 6 -4 8 -3 4 1 -4 5 -14 10
-22 11 -11 2 -12 -2 -5 -16 5 -9 7 -19 5 -22 -2 -2 27 -4 65 -4 37 1 66 4 64
8 -3 5 0 8 5 8 6 0 11 -4 11 -8 0 -4 175 -8 389 -8 371 0 411 3 378 27 -4 3
-1 11 7 18 13 11 15 9 13 -15 -1 -15 4 -29 11 -31 8 -3 10 2 6 14 -5 16 -4 16
8 3 19 -23 58 -24 52 -2 -5 15 -4 15 9 -1 10 -12 17 -14 22 -8 3 6 12 11 18
11 9 0 9 -2 0 -8 -7 -5 30 -8 82 -8 70 1 98 5 104 15 7 11 9 11 13 0 3 -10 27
-14 90 -14 67 0 85 2 81 13 -3 7 -11 11 -18 8 -20 -7 -26 5 -12 23 10 14 10
14 -5 3 -10 -8 -14 -20 -11 -30 6 -15 5 -15 -10 -3 -9 7 -14 17 -11 22 3 5 0
9 -5 9 -14 0 -14 -13 1 -28 19 -19 -3 -14 -24 5 -11 10 -19 13 -18 8 5 -21 -1
-29 -9 -16 -8 13 -12 13 -27 0 -16 -12 -17 -12 -11 4 17 43 19 52 5 32 -14
-22 -56 -35 -42 -14 4 8 3 10 -5 5 -6 -4 -20 -2 -29 6 -15 12 -16 11 -3 -5 12
-15 11 -17 -10 -15 -15 2 -23 -2 -22 -10 4 -17 -9 -15 -33 4 -16 13 -16 15 -1
10 9 -3 17 -1 17 4 0 14 -22 12 -44 -5 -25 -19 -37 -19 -30 -2 3 8 -7 18 -23
25 l-28 13 25 -21 25 -20 -28 0 c-20 0 -26 4 -21 13 6 9 4 9 -8 -1 -10 -8 -19
-9 -22 -3 -3 5 0 12 6 14 8 4 9 6 2 6 -6 1 -17 -6 -25 -15 -11 -14 -14 -14
-28 5 -18 23 -41 16 -45 -14 -3 -21 -26 -34 -26 -15 0 6 4 9 9 6 5 -4 7 3 4
14 -3 11 -10 23 -15 26 -6 4 -8 -1 -4 -13 5 -14 1 -19 -14 -19 -23 0 -25 7 -7
25 10 10 9 11 -5 6 -9 -4 -18 -15 -21 -26 -3 -10 -1 -17 4 -13 5 3 9 0 9 -6 0
-7 -6 -10 -12 -7 -7 2 -12 13 -10 23 2 15 -1 14 -13 -6 -14 -21 -15 -22 -10
-4 5 18 1 21 -20 22 -18 0 -25 -5 -21 -14 7 -18 -12 -28 -28 -15 -7 6 -20 9
-29 5 -8 -3 -18 -1 -22 5 -3 6 -11 11 -17 11 -7 0 -6 -6 2 -15 7 -8 8 -15 2
-15 -5 0 -15 14 -22 31 -10 22 -15 27 -21 17 -12 -18 -11 -38 1 -38 5 0 7 8 4
17 -5 15 -4 16 5 3 5 -8 7 -18 3 -22 -12 -12 -61 14 -68 35 -6 18 -6 18 -19 0
-7 -10 -11 -20 -9 -23 3 -2 9 1 13 9 6 10 10 9 15 -5 4 -10 4 -15 0 -11 -4 4
-13 2 -21 -4 -7 -6 -13 -8 -13 -3 0 5 -10 20 -21 34 -17 21 -19 22 -10 3 6
-12 8 -23 3 -26 -4 -2 0 -2 8 0 11 3 12 1 3 -8 -14 -14 -34 -3 -27 16 6 16
-36 18 -47 2 -4 -5 -12 -6 -19 -2 -9 6 -9 9 1 16 7 4 10 11 6 16 -10 9 -28
-18 -20 -30 3 -5 -4 -6 -17 -2 -19 6 -22 4 -17 -9 9 -22 -6 -20 -23 4 -10 14
-16 16 -22 7 -6 -9 -12 -7 -23 7 -8 11 -15 14 -15 7 0 -7 -5 -9 -12 -5 -9 5
-9 3 1 -9 7 -9 18 -14 24 -10 6 3 7 1 3 -5 -8 -13 -43 0 -59 22 -6 7 -7 4 -3
-6 3 -10 1 -20 -4 -23 -6 -4 -10 -1 -10 6 0 8 -4 8 -15 -1 -11 -9 -15 -9 -15
-1 0 6 7 14 15 17 8 4 15 11 15 17 0 5 -8 3 -18 -6 -24 -22 -38 -21 -51 1 -6
9 -11 12 -11 5 0 -6 10 -19 22 -27 16 -11 18 -16 7 -16 -8 0 -20 5 -27 12 -8
8 -15 8 -26 -1 -10 -8 -16 -9 -21 -1 -3 5 0 10 7 10 10 0 10 2 -1 9 -11 7 -10
11 5 20 11 6 14 11 8 11 -6 0 -17 -7 -24 -15z m373 -32 c-6 -15 -19 -17 -27
-4 -7 11 0 18 18 18 8 0 12 -6 9 -14z m310 0 c-6 -16 -10 -16 -16 0 -3 8 1 14
8 14 7 0 11 -6 8 -14z m211 -4 c-3 -5 -10 -7 -15 -3 -5 3 -7 10 -3 15 3 5 10
7 15 3 5 -3 7 -10 3 -15z m-650 3 c3 -5 -1 -9 -9 -9 -8 0 -12 4 -9 9 7 10 11
10 18 0z m780 0 c3 -5 -1 -9 -9 -9 -8 0 -12 4 -9 9 7 10 11 10 18 0z m66 -2
c0 -5 -2 -10 -4 -10 -3 0 -8 5 -11 10 -3 6 -1 10 4 10 6 0 11 -4 11 -10z m45
1 c3 -6 -3 -9 -14 -8 -11 0 -17 5 -15 9 7 11 22 10 29 -1z"/>
<path d="M1670 58 c0 -4 4 -8 9 -8 6 0 12 4 15 8 3 5 -1 9 -9 9 -8 0 -15 -4
-15 -9z"/>
<path d="M1960 51 c14 -11 27 -16 28 -10 2 5 8 7 13 3 5 -3 9 0 9 6 0 7 -7 9
-16 6 -8 -3 -25 -1 -37 5 -19 9 -18 7 3 -10z"/>
<path d="M2068 63 c7 -3 16 -2 19 1 4 3 -2 6 -13 5 -11 0 -14 -3 -6 -6z"/>
<path d="M2393 55 c0 -8 4 -12 9 -9 4 3 8 9 8 15 0 5 -4 9 -8 9 -5 0 -9 -7 -9
-15z"/>
<path d="M2457 59 c7 -7 15 -10 18 -7 3 3 -2 9 -12 12 -14 6 -15 5 -6 -5z"/>
<path d="M2546 58 c3 -5 10 -6 15 -3 13 9 11 12 -6 12 -8 0 -12 -4 -9 -9z"/>
<path d="M2737 64 c-8 -8 3 -34 15 -34 7 0 6 5 -1 13 -6 8 -8 17 -4 20 3 4 4
7 1 7 -2 0 -7 -3 -11 -6z"/>
<path d="M1478 53 c7 -3 16 -2 19 1 4 3 -2 6 -13 5 -11 0 -14 -3 -6 -6z"/>
<path d="M2027 40 c3 -11 9 -20 15 -20 5 0 4 9 -2 20 -6 11 -12 20 -14 20 -2
0 -2 -9 1 -20z"/>
<path d="M2833 44 c1 -10 -4 -19 -10 -20 -7 -1 -17 -2 -23 -3 -5 0 -10 -6 -10
-12 0 -8 5 -8 15 1 12 10 15 10 15 -1 0 -7 7 -3 16 10 11 15 13 26 6 33 -7 7
-10 4 -9 -8z"/>
<path d="M1090 40 c-11 -7 -11 -10 -2 -10 8 0 10 -5 6 -12 -4 -7 -3 -9 1 -5 7
6 17 37 12 37 -1 0 -9 -5 -17 -10z"/>
<path d="M1137 31 c-10 -14 -10 -14 4 -4 9 7 18 10 21 7 3 -3 8 -1 12 4 9 16
-24 9 -37 -7z"/>
<path d="M1250 48 c0 -2 9 -11 20 -21 11 -9 20 -13 20 -7 0 5 -9 14 -20 20
-11 6 -20 9 -20 8z"/>
<path d="M2914 32 c2 -9 9 -18 17 -20 11 -3 11 -1 -1 7 -14 10 -7 16 15 11 6
-1 6 2 2 6 -14 15 -35 12 -33 -4z"/>
<path d="M2985 40 c-3 -6 1 -7 9 -4 18 7 21 14 7 14 -6 0 -13 -4 -16 -10z"/>
<path d="M1223 24 c1 -21 29 -27 44 -9 5 4 2 5 -4 1 -7 -4 -13 -2 -13 4 0 6
-4 9 -9 6 -5 -4 -11 0 -14 6 -3 7 -5 4 -4 -8z"/>
<path d="M780 20 c-8 -5 -10 -10 -5 -10 6 0 17 5 25 10 8 5 11 10 5 10 -5 0
-17 -5 -25 -10z"/>
<path d="M1066 17 c3 -10 9 -15 12 -12 3 3 0 11 -7 18 -10 9 -11 8 -5 -6z"/>
<path d="M1175 20 c-8 -13 9 -20 24 -11 10 6 9 10 -3 14 -8 3 -18 2 -21 -3z"/>
<path d="M2870 19 c0 -5 5 -7 10 -4 6 3 10 8 10 11 0 2 -4 4 -10 4 -5 0 -10
-5 -10 -11z"/>
<path d="M3095 21 c-3 -5 -2 -12 3 -15 5 -3 9 1 9 9 0 17 -3 19 -12 6z"/>
<path d="M960 6 c7 -7 13 -7 20 0 6 6 3 10 -10 10 -13 0 -16 -4 -10 -10z"/>
<path d="M2755 10 c3 -5 8 -10 11 -10 2 0 4 5 4 10 0 6 -5 10 -11 10 -5 0 -7
-4 -4 -10z"/>
</g>
</svg>
